<svg width="16" height="16" viewBox="0 0 16 16" fill="none" xmlns="http://www.w3.org/2000/svg">
<path d="M9.25 5.5C9.25 5.16848 9.1183 4.85054 8.88388 4.61612C8.64946 4.3817 8.33152 4.25 8 4.25C7.66848 4.25 7.35054 4.3817 7.11612 4.61612C6.8817 4.85054 6.75 5.16848 6.75 5.5V7H9.25V5.5Z" fill="white"/>
<path d="M14.165 1.01399L8.165 0.0139894C8.05574 -0.00401209 7.94426 -0.00401209 7.835 0.0139894L1.835 1.01399C1.60168 1.05302 1.38976 1.1735 1.23688 1.35403C1.084 1.53455 1.00007 1.76343 1 1.99999V8.99999C1 10.8565 1.7375 12.637 3.05025 13.9497C4.36301 15.2625 6.14348 16 8 16C9.85652 16 11.637 15.2625 12.9497 13.9497C14.2625 12.637 15 10.8565 15 8.99999V1.99999C14.9999 1.76343 14.916 1.53455 14.7631 1.35403C14.6102 1.1735 14.3983 1.05302 14.165 1.01399ZM12 11C12 11.2652 11.8946 11.5196 11.7071 11.7071C11.5196 11.8946 11.2652 12 11 12H5C4.73478 12 4.48043 11.8946 4.29289 11.7071C4.10536 11.5196 4 11.2652 4 11V7.99999C4 7.73477 4.10536 7.48042 4.29289 7.29288C4.48043 7.10535 4.73478 6.99999 5 6.99999H5.25V5.49999C5.25 4.77064 5.53973 4.07117 6.05546 3.55545C6.57118 3.03972 7.27065 2.74999 8 2.74999C8.72935 2.74999 9.42882 3.03972 9.94454 3.55545C10.4603 4.07117 10.75 4.77064 10.75 5.49999V6.99999H11C11.2652 6.99999 11.5196 7.10535 11.7071 7.29288C11.8946 7.48042 12 7.73477 12 7.99999V11Z" fill="white"/>
</svg>
